<svg xmlns="http://www.w3.org/2000/svg" viewBox="0 0 150.75 91.66"><defs><style>.cls-1{fill:#ff282d;}</style></defs><title>Edge_Cloud_Fastly</title><g id="Layer_2" data-name="Layer 2"><g id="icons"><path class="cls-1" d="M150.66,58.53V58.4c-.05-.83-.1-1.66-.16-2.49,0-.53-.08-1-.13-1.39l0-.17c0-.2-.05-.39-.09-.59a12.29,12.29,0,0,0-.51-1.95,12.11,12.11,0,0,0-2.57-4.09c-.22-.25-.45-.49-.68-.74l-.23-.24-.53-.52-.25-.25-.38-.35-.29-.26-.28-.25-.28-.24c-.2-.18-.41-.36-.62-.52l-.3-.24c-.22-.17-.43-.34-.66-.5l-.31-.23-.68-.47-.35-.24c-.22-.15-.45-.3-.69-.44l-1.07-.64-.33-.17-.7-.37a9.13,9.13,0,0,0-1.94-.76,7.49,7.49,0,0,0-1.43-.24h-.1a6.3,6.3,0,0,0-1.47.09,4.76,4.76,0,0,0-.61.13l.19-.5c0-.12.09-.24.13-.37l.07-.23a3.06,3.06,0,0,0,.13-.43l.19-.7a11.81,11.81,0,0,0,.26-1.48,10.45,10.45,0,0,0-.05-3l-.1-.63c0-.17-.07-.34-.12-.54l0-.18c0-.16-.08-.31-.12-.47l-.05-.18-.12-.42-.08-.23c-.12-.36-.23-.72-.36-1.08-.3-.82-.59-1.53-.88-2.17s-.67-1.48-1-2.19a26.26,26.26,0,0,0-1.29-2.29c-.19-.29-.38-.59-.58-.87s-.47-.65-.71-1c-.09-.12-.19-.23-.3-.35l-.13-.15q-.15-.18-.3-.33l-.08-.08c-.26-.28-.54-.54-.83-.82l-.11-.09a3.88,3.88,0,0,0-.31-.26l-.12-.1-.41-.31-.48-.35-.39-.25-.18-.11c-.23-.15-.48-.29-.74-.44l-.2-.11-.4-.21-.31-.16-.33-.17-.09,0c-.62-.3-1.27-.61-1.95-.86l-.1,0-1-.35c-.36-.12-.72-.23-1.09-.33a21.33,21.33,0,0,0-2.31-.52l-.11,0-1-.14-.2,0-1-.09c-.63,0-1.28-.07-1.92-.07l-1.42,0-.33,0-.89.05c-.3,0-.6.05-.89.09l-.33,0c-.36,0-.7.09-1,.15a24.27,24.27,0,0,0-4.92,1.42c0-.39-.06-.76-.1-1.13s-.12-.71-.21-1.12c0-.14-.07-.29-.11-.42l-.07-.26c0-.18-.1-.35-.16-.52l-.07-.19c-.11-.29-.22-.6-.36-.88l-.16-.35c-.11-.23-.22-.47-.34-.69l-.56-1.06L99.75,9l-.2-.34c-.12-.23-.26-.45-.41-.69L99,7.68a15.26,15.26,0,0,0-1.49-2.09,12.22,12.22,0,0,0-2.37-2.12,21.91,21.91,0,0,0-2.4-1.39c-.28-.15-.57-.28-.86-.41l-.52-.24c-.12-.06-.25-.1-.37-.15L90.19,1A10.78,10.78,0,0,0,88.94.62L88.17.45l-.12,0-.53-.1-.7-.08c-.29,0-.57-.07-.86-.09L84.84.09,82.64,0,80.4,0H79.35l-.89,0h-.31c-.28,0-.57,0-.85.06L76,.27l-.72.11-.78.14a2.47,2.47,0,0,0-.29.06L73.31.8,73,.87l-1.22.37c-.24.07-.47.16-.7.25l-.26.1c-.32.12-.64.24-1,.38l-.78.34-.29.13L67.73,3c-.22.11-.43.23-.65.36l-.22.12c-.28.16-.56.32-.83.49l-.28.18c-.22.13-.44.27-.65.42L64,5.31l-.68.52-.29.23c-.27.21-.53.42-.78.64s-.53.44-.79.68l-.17.16c-.22.19-.43.39-.64.6l-.18.18c-.21.21-.42.42-.61.64l-.12.13c-.21.24-.43.49-.63.74s-.54.68-.8,1l-.69,1c-.29.43-.56.86-.88,1.38A16.65,16.65,0,0,0,56,14.72a16.36,16.36,0,0,0-.7,1.71l-.15.48a6.74,6.74,0,0,0-.17.75l-.36-.34a6.48,6.48,0,0,0-1.34-.94,7,7,0,0,0-1.47-.61,9.36,9.36,0,0,0-1.68-.29l-.5,0-.54,0-2.35,0c-.68,0-1.36,0-2,.06H44.5c-.75,0-1.48.12-2.29.21s-1.38.21-2,.36l-.25.05-.79.19-.82.24-.29.08L36.9,17a4.32,4.32,0,0,0-.45.19l-.77.34a12.56,12.56,0,0,0-1.12.6c-.43.26-.87.56-1.34.91-.3.23-.6.46-.89.72l-.9.82c-.11.1-.21.21-.3.31l-.6.64a13.22,13.22,0,0,0-.87,1,17.32,17.32,0,0,0-1.84,2.95c-.29.6-.54,1.22-.79,1.85l-.2.53a2.06,2.06,0,0,0-.12.35l-.15.43c-.09.26-.18.53-.26.8l-.25.9c0,.12-.07.23-.1.35L25.67,32c0,.14-.06.28-.08.42l-.15,1c0,.1,0,.2,0,.29l-.06.71c0,.39-.07.73-.08,1.08v.39c0,.27,0,.55,0,.83v1.42c0,.26,0,.52,0,.84l0,.35c0,.37,0,.74.07,1.11l.07,1,0,.32L25.61,43c0,.18,0,.36.07.54l.07.45c.07.45.15.91.25,1.36l.24,1.08c0,.07,0,.13.06.25l.16.58a3.16,3.16,0,0,0-.5-.1l-.56-.07-.26,0c-.55-.06-1.11-.13-1.66-.22l-.83-.13-1-.18-.79-.12-.57-.07-.26,0-.56,0-.39,0h-.39l-.91,0c-.22,0-.43,0-.65,0l-.16,0c-.34,0-.71.09-1.14.17a9.91,9.91,0,0,0-1.84.53l-.84.34c-.54.22-1,.48-1.54.73l-.19.1c-.29.15-.58.3-.86.46l-.24.14-.66.39c-.33.2-.63.39-.92.59l-.47.33c-.13.09-.26.2-.38.3l-.24.2-.29.23-.46.44c-.23.22-.44.45-.64.67l-.13.14c-.17.18-.33.38-.49.58l-.18.21-.51.65-.22.29c-.39.5-.75,1-1.11,1.56l-.15.21L3,56.2l-.16.26a8.49,8.49,0,0,0-.43.74l-.1.17a21.11,21.11,0,0,0-1,2L1.1,60c-.17.4-.31.82-.43,1.18s-.26.89-.37,1.37H.09L0,64.36A10.53,10.53,0,0,0,0,66a11.32,11.32,0,0,0,.28,1.68,10.11,10.11,0,0,0,1.19,2.81,11.33,11.33,0,0,0,.84,1.21,9.49,9.49,0,0,0,1.1,1.16,8.76,8.76,0,0,0,1.1.84c.21.13.43.25.7.4.61.33,1.23.63,1.87.93s1.08.51,1.63.75c.32.14.69.28,1.14.43a.51.51,0,0,0,.41.2h.31c.53.14,1.07.26,1.62.38l.15,0a6.33,6.33,0,0,0,1,.16h.1a4.27,4.27,0,0,0,1-.16l.17,0a.5.5,0,0,0,.32-.22h1.68l2.28,0,2.16,0c1.34,0,2.66-.1,3.66-.16l.49,0c.86-.06,1.73-.11,2.6-.19l3.28-.3,2.16-.21,4.81-.45c1.23-.11,2.46-.2,3.7-.29l.77-.06c.92-.07,1.84-.14,2.76-.19,1.4-.08,2.56-.14,3.62-.17V85.82a5.85,5.85,0,0,0,5.84,5.84h53.8a5.84,5.84,0,0,0,5.83-5.84V78.11l.73,0h.14a12.85,12.85,0,0,0,1.31-.09l1.25-.15,0-.37.12.21,0,.14a28.77,28.77,0,0,0,2.9.32l1.09,0h1.26l2.37,0h1.16c.52,0,1,0,1.55,0s1.27-.1,1.89-.18l.91-.11c.58,0,1.17-.06,1.75-.07H133c.76,0,1.53-.06,2.36-.14a12.23,12.23,0,0,0,2.2-.44,21.91,21.91,0,0,0,2.25-.76,10.26,10.26,0,0,0,1.12-.51,11.14,11.14,0,0,0,1-.63l.39-.27c.5-.35,1-.71,1.53-1.09a15.83,15.83,0,0,0,1.87-1.63c.55-.58,1.05-1.18,1.6-1.84.26-.32.54-.66.8-1l.12-.17a7.2,7.2,0,0,0,.58-.83,9.8,9.8,0,0,0,.72-1.35c.14-.33.28-.67.39-1l0,0a.52.52,0,0,1,.1-.11l.23-.24-.18-.22c.07-.23.13-.46.19-.69l.13-.63c0-.15.06-.3.09-.45l0-.2a16.34,16.34,0,0,0,.19-2.73C150.74,60.07,150.7,59.29,150.66,58.53ZM32.92,22.43h0l0-.06,0,.12h0Zm79.51,63.39a3.87,3.87,0,0,1-3.87,3.87H54.76a3.87,3.87,0,0,1-3.87-3.87v-18a3.87,3.87,0,0,1,3.87-3.87h53.8a3.87,3.87,0,0,1,3.87,3.87ZM68.75,56.08l.09.07,0,.06h0Zm79.51,5.21c0,.32,0,.64-.06,1s0,.44-.08.65a.57.57,0,0,0-.08-.13,3.49,3.49,0,0,0-.25-.4.46.46,0,0,1,0-.14,2.52,2.52,0,0,0-.33-.66,4.61,4.61,0,0,0-.37-.45,1.63,1.63,0,0,1-.17-.2,3.63,3.63,0,0,0-.47-.49l-.12-.12a2.13,2.13,0,0,1-.13-.21,2.82,2.82,0,0,0-.34-.51,1.94,1.94,0,0,1-.1-.17,2.89,2.89,0,0,0-.38-.55,2.71,2.71,0,0,0-.58-.47l-.11-.07-.19-.19a5.7,5.7,0,0,0-.42-.43l-.12-.15a2.73,2.73,0,0,0-.45-.48,6.57,6.57,0,0,0-.74-.54,5.21,5.21,0,0,0-.86-.46,1.81,1.81,0,0,0-1-.07l-.14,0a2,2,0,0,0-.82-.2c-.23,0-.45,0-.67,0l-.5,0-.54,0-.36,0a3.85,3.85,0,0,0-.48,0,2.6,2.6,0,0,0-.69.16l-.15,0c-.17,0-.34,0-.54.08l-.24,0-.15,0a2.11,2.11,0,0,0-.77-.09h-.34a4.34,4.34,0,0,0-.51,0,2.16,2.16,0,0,0-.82.24l-.07,0a.74.74,0,0,1-.26,0,4.69,4.69,0,0,0-.53,0l-.85,0-.23,0a2.82,2.82,0,0,0-.62-.05,2.73,2.73,0,0,0-.71.13l-.13,0h-.79l-.14,0a2.72,2.72,0,0,0-.77-.14,3.41,3.41,0,0,0-.67.1l-.18,0a3.78,3.78,0,0,0-.61.07l-.21,0-.34,0a4.71,4.71,0,0,0-.53,0,5,5,0,0,0-.61.06h-.2l-.08,0a2.3,2.3,0,0,0-.82-.19,2.61,2.61,0,0,0-.81.17l0,0h-.74l-.12-.05a2.22,2.22,0,0,0-.9-.23l-.78,0a3.1,3.1,0,0,0-.63.05l-.21,0a5.14,5.14,0,0,0-.55,0h-.3a2.09,2.09,0,0,1-.34,0l-.51-.05a3.77,3.77,0,0,0-.67,0c-.06,0-.12,0-.09,0l-.12-.06a2.25,2.25,0,0,0-.8-.23l-.41,0-.44,0a2.77,2.77,0,0,0-.68,0l-.17,0-.43,0-.42,0-.29,0a5.12,5.12,0,0,0-.54-.1,3.17,3.17,0,0,0-.73.05H112a1.48,1.48,0,0,0-.16-.65,1.59,1.59,0,0,0-.49-.48,1.84,1.84,0,0,1-.22-.17l-.15-.16a2.22,2.22,0,0,0-.53-.47,3.35,3.35,0,0,0-.87-.39,2.26,2.26,0,0,0-.68,0,2.26,2.26,0,0,1-.52,0,1.76,1.76,0,0,0-.68,0,1.48,1.48,0,0,0-.59.34,1.7,1.7,0,0,1-.22.15.73.73,0,0,1-.26.08,1.29,1.29,0,0,0-.64.3,1.5,1.5,0,0,0-.32.61,1.09,1.09,0,0,1-.1.26c0,.07-.09.14-.14.21a1.83,1.83,0,0,0-.33.62,2.25,2.25,0,0,0,0,.72,1.69,1.69,0,0,1,0,.23,3.25,3.25,0,0,0,.11.93,2.19,2.19,0,0,1,0,.27,1.94,1.94,0,0,0,.19.67,1.51,1.51,0,0,0,.51.47.92.92,0,0,1,.22.17l.12.13a2.88,2.88,0,0,0,.58.49l.21.14a2.14,2.14,0,0,0,.64.33,1.5,1.5,0,0,0,.67,0,10.05,10.05,0,0,0,1.22-.11l.11,0a2.89,2.89,0,0,0,.79-.29l.23-.11a2.25,2.25,0,0,0,.61-.39,3.67,3.67,0,0,0,.5-.71l.05-.1a2.57,2.57,0,0,0,.25-.72l0-.12.3,0,.14,0,.29.06c.17,0,.36.07.56.09l.42,0,.44,0a2.44,2.44,0,0,0,.69,0l.18,0,.37,0a2.21,2.21,0,0,0,.39,0l.12.06a2.29,2.29,0,0,0,.82.24,3.34,3.34,0,0,0,.66,0l.21,0,.33,0a4.6,4.6,0,0,0,.52.06,5.32,5.32,0,0,0,.56,0h.3a3.28,3.28,0,0,0,.66,0l.21,0,.78,0,.09,0a2.26,2.26,0,0,0,.85.22l.85,0a2.2,2.2,0,0,0,.82-.16l.05,0,0,0a2.3,2.3,0,0,0,.81.19,4.48,4.48,0,0,0,.64-.06,1.64,1.64,0,0,1,.54,0h.1l.45,0a5.08,5.08,0,0,0,.62-.07l.24,0a3,3,0,0,0,.68-.1c.07,0,.14,0,.12,0l.16,0a2.48,2.48,0,0,0,.76.13c.13,0,.25,0,.37,0h.5a2.92,2.92,0,0,0,.7-.13l.13,0,.23,0a3.06,3.06,0,0,0,.65.06l.86,0h.32a5,5,0,0,0,.55,0,2,2,0,0,0,.82-.23l.09,0h.74l.15,0a2.38,2.38,0,0,0,.78.1c.18,0,.35,0,.56-.07l.29,0a2.79,2.79,0,0,0,.7-.16l.15,0h.35l.51,0,.51,0h.25l.39,0,.24,0,.12,0a2.5,2.5,0,0,0,.58.18,2.27,2.27,0,0,0,.64,0h.05a3.81,3.81,0,0,1,.4.23,4.55,4.55,0,0,1,.5.37,1.08,1.08,0,0,1,.13.15,2.91,2.91,0,0,0,.33.37l.32.34.21.22a2.3,2.3,0,0,0,.55.42s.09.06.09,0a1.28,1.28,0,0,1,.1.17,3.22,3.22,0,0,0,.34.51s.07.12.12.21a4.44,4.44,0,0,0,.3.46,4,4,0,0,0,.4.41.8.8,0,0,1,.16.16c.1.13.21.25.34.39l.16.19s0,.1.06.14a2.54,2.54,0,0,0,.3.64,2.2,2.2,0,0,1,.19.3l.24.38a2.38,2.38,0,0,0,.52.53s.09.07.08.05l.45.68c-.08.23-.17.45-.24.63l-.24.47-.18.3-.11.17c-.06.1-.13.19-.2.29l-.12.16-.2.27-.07.1c-.57.71-1.14,1.39-1.71,2a16.09,16.09,0,0,1-1.84,1.7c-.49.37-1,.75-1.67,1.18-.29.2-.6.41-.93.6a8.16,8.16,0,0,1-.9.44c-.67.26-1.38.49-2.11.7a14.07,14.07,0,0,1-2.22.41c-.49,0-.94.06-1.38.07h-.6l-.95,0c-.54,0-1.11.06-1.76.13l-.77.1-.61.08c-.6,0-1.23,0-1.83,0h-.23c-.77,0-1.56,0-2.22.06l-.53,0-1.82.09a13.74,13.74,0,0,0-1.9-.43,9.22,9.22,0,0,0-2.1-.08c-.41,0-.83.08-1.22.13l-.68.08a15.65,15.65,0,0,1-1.71,0V67.78a5.84,5.84,0,0,0-5.83-5.84H96.14a.75.75,0,0,1,0-.15v-.38c0-.12.12-4.43.23-8.18l0-.93a4.37,4.37,0,0,0,0-.6,1.13,1.13,0,0,1,0-.26c0-.16,0-.33,0-.54s0-.21,0-.32a1.36,1.36,0,0,1,0-.2,2.18,2.18,0,0,0,0-.29h.08a3.24,3.24,0,0,0,.75-.35l.09,0a3.56,3.56,0,0,0,.76-.54,3.25,3.25,0,0,0,.53-.76,3.11,3.11,0,0,0,.35-.86,3.32,3.32,0,0,0,.08-.91.83.83,0,0,1,.07-.27,1.24,1.24,0,0,0,.07-.7,3.12,3.12,0,0,0-.37-.78l-.06-.1a3.77,3.77,0,0,0-.58-.78,1.47,1.47,0,0,0-.6-.32,1.09,1.09,0,0,1-.26-.1.78.78,0,0,1-.21-.17,1.56,1.56,0,0,0-.59-.36,1.41,1.41,0,0,0-.68,0,1.75,1.75,0,0,1-.56,0,1.52,1.52,0,0,0-.67,0,3.41,3.41,0,0,0-.87.39,3.22,3.22,0,0,0-.62.52l-.09.1a3.34,3.34,0,0,0-.55.75,2.86,2.86,0,0,0-.28.75l0,.12a3.72,3.72,0,0,0-.11.91,1.11,1.11,0,0,1-.06.27,1.24,1.24,0,0,0-.07.7,1.57,1.57,0,0,0,.37.6,1.84,1.84,0,0,1,.17.22c0,.06.07.12.1.19a2.24,2.24,0,0,0,.4.6,2.91,2.91,0,0,0,.66.46l.13.07.22.15.2.14a3.85,3.85,0,0,0-.07.52c0,.18,0,.35,0,.55s0,.2,0,.3a4.29,4.29,0,0,0,0,.61,1.07,1.07,0,0,1,0,.25l0,1.5c-.06,2.41-.2,7.42-.2,7.56l0,.42v.22H69.37a4.87,4.87,0,0,0,0-.54c0-.17,0-.33,0-.51a2.07,2.07,0,0,1,0-.35,3.78,3.78,0,0,0-.1-.63,1.07,1.07,0,0,1,0-.21s0-.11,0-.18a3,3,0,0,0,.09-.7,4.53,4.53,0,0,0-.06-.5s0-.08,0-.12l.11-.18.11,0a2.17,2.17,0,0,0,.74-.46,3.08,3.08,0,0,0,.4-.54.68.68,0,0,1,.09-.14l.58-.59c.12-.12.22-.24.33-.37l.23-.25.28-.27c.1-.11.21-.21.31-.31l.58-.6a1.29,1.29,0,0,1,.2-.15,4.79,4.79,0,0,0,.45-.38,2.67,2.67,0,0,0,.4-.55s.07-.1.06-.11l.13-.07a2.63,2.63,0,0,0,.6-.43,4.08,4.08,0,0,0,.36-.42,1.41,1.41,0,0,0,.29.25,1.66,1.66,0,0,0,.66.17l.27,0a1.42,1.42,0,0,1,.23.13,1.33,1.33,0,0,0,.68.25,3.65,3.65,0,0,0,1-.15,3.85,3.85,0,0,0,.89-.4,2.74,2.74,0,0,0,.6-.51L79.9,52a3.65,3.65,0,0,0,.56-.76,1.52,1.52,0,0,0,.18-.65c0-.09,0-.18,0-.27l0-.1a2.85,2.85,0,0,0,.13-.8,3.36,3.36,0,0,0-.11-.92c0-.09,0-.18,0-.27a1.87,1.87,0,0,0-.18-.66l-.1-.18a2.92,2.92,0,0,0-.44-.64,2.11,2.11,0,0,0-.61-.39l-.22-.12a3.62,3.62,0,0,0-.89-.32l-.19-.06a3.29,3.29,0,0,0-1.71,0,1.51,1.51,0,0,0-.58.36,1.12,1.12,0,0,1-.22.16l-.22.11a1.81,1.81,0,0,0-.58.38,3.7,3.7,0,0,0-.57.75,4,4,0,0,0-.38.87,3.66,3.66,0,0,0-.1.94,2.44,2.44,0,0,0,.14.75l0,.17a.58.58,0,0,1,0,.14l-.11.11a3.64,3.64,0,0,0-.36.41l-.16.19-.13.07a2.63,2.63,0,0,0-.6.43,3.23,3.23,0,0,0-.41.55l-.08.14s-.11.08-.19.15a2.57,2.57,0,0,0-.46.38l-.58.59-.27.27-.32.31a5,5,0,0,0-.36.4l-.2.22-.58.59a2.88,2.88,0,0,0-.41.55.88.88,0,0,0-.07.12l0,0a2.11,2.11,0,0,0-.75.46,3.51,3.51,0,0,0-.69,1,2.22,2.22,0,0,0-.09,1.35,1.15,1.15,0,0,1,0,.14.86.86,0,0,1,0,.18,3.25,3.25,0,0,0-.09.71,3,3,0,0,0,.1.64,1.2,1.2,0,0,1,0,.24c0,.17,0,.35,0,.52s0,.23,0,.35,0,.18,0,.31,0,.09,0,.14H54.76a5.85,5.85,0,0,0-5.84,5.84v4.38c-1.32,0-2.62.1-3.62.15l-2.75.17-.8.06c-1.26.08-2.51.17-3.77.27-2.81.22-5.67.48-8.43.74l-3.48.32c-1,.09-2.21.19-3.37.27s-2.14.11-3.22.14l-2.57.06-1.4.06a29.05,29.05,0,0,0-3.42.46l-.28-.14c-.41-.21-.82-.42-1.22-.61L8.28,73l-1.63-.82-.57-.32a7,7,0,0,1-1.23-.93,8,8,0,0,1-2.1-3.29,9.64,9.64,0,0,1-.38-2c0-.23,0-.48,0-.77a2.16,2.16,0,0,0,.54.1c.11,0,.21,0,.32,0s1.69,0,11.43-.32l5.76-.17a2.4,2.4,0,0,0,.82-.15l.07,0,.12,0a2.78,2.78,0,0,0,.68.12,3.08,3.08,0,0,0,.62,0l.23,0,.84,0,.19,0a3.1,3.1,0,0,0,.65.11,4.09,4.09,0,0,0,.59,0,1.11,1.11,0,0,1,.26,0l.58,0h.26a1.76,1.76,0,0,1,.27,0,4.44,4.44,0,0,0,.57.07,1.92,1.92,0,0,1,.3,0,4.93,4.93,0,0,0,.54,0,2.19,2.19,0,0,0,.8-.13l.08,0,.11,0a2.87,2.87,0,0,0,.7.14,3.1,3.1,0,0,0,.64-.06l.17,0,.15,0a2.52,2.52,0,0,0,.73.15,2.55,2.55,0,0,0,.67-.07l.18,0a1.57,1.57,0,0,1,.25,0,4.44,4.44,0,0,0,.59.08l.84,0,.34,0a4.38,4.38,0,0,0,.5,0l.3,0a5,5,0,0,0,.54.06,1.92,1.92,0,0,0,.89-.2h0a2.23,2.23,0,0,0,.77.18A2.56,2.56,0,0,0,38,65l.15,0,.18,0a3.1,3.1,0,0,0,.66.11l.34,0,.61,0a2.45,2.45,0,0,0,.86-.18l.13,0a5.89,5.89,0,0,0,1-.16h.14a2,2,0,0,0,1-.15,7.38,7.38,0,0,0,.79-.44l-.2-.32.28.27a9,9,0,0,0,.79-.54c.18-.14.33-.29.47-.42a1.9,1.9,0,0,1,.21-.19l.26-.21c.14-.11.28-.22.41-.34a2.56,2.56,0,0,0,.46-.55l.08-.12.36-.32.27-.24.38-.37.23-.22a1.09,1.09,0,0,1,.17-.1,3.87,3.87,0,0,0,.54-.36,5.4,5.4,0,0,0,.41-.45c.06-.07.12-.14.08-.12l.12-.05a2.24,2.24,0,0,0,.74-.41,2,2,0,0,0,.49-.72,2.08,2.08,0,0,0,.76-.4,2.47,2.47,0,0,0,.49-.66s0-.09,0-.07l.2-.13.27-.2a3.54,3.54,0,0,0,.72.25,3.49,3.49,0,0,0,1,.14,3.71,3.71,0,0,0,1-.16l.1,0a3.25,3.25,0,0,0,.82-.3,3.56,3.56,0,0,0,.76-.61,3.63,3.63,0,0,0,1-1.67,3,3,0,0,0,.06-.79v-.18a2.7,2.7,0,0,0-.14-.78l0-.16a2,2,0,0,1,0-.26,2,2,0,0,0-.2-.68,1.59,1.59,0,0,0-.49-.48,1.32,1.32,0,0,1-.22-.18,3.76,3.76,0,0,0-.75-.56,3.16,3.16,0,0,0-.86-.36l-.25-.1a1.63,1.63,0,0,0-.68-.18,1.94,1.94,0,0,0-.7.16l-.24.07a2.55,2.55,0,0,0-.64.32l-.19.12a1.19,1.19,0,0,1-.26.11,1.49,1.49,0,0,0-.6.33,2,2,0,0,0-.37.59l-.12.24a2.23,2.23,0,0,0-.22.66,1.89,1.89,0,0,1-.05.23l-.06.2a2.49,2.49,0,0,0-.13.71,2.28,2.28,0,0,1,0,.26,2.41,2.41,0,0,0,0,.7,4.9,4.9,0,0,0,.29.81,4.11,4.11,0,0,0-.35.27,2.38,2.38,0,0,0-.5.67,2.18,2.18,0,0,0-.79.42,2,2,0,0,0-.5.74,2.21,2.21,0,0,0-.73.41,4.07,4.07,0,0,0-.41.43l-.16.19-.17.1a2.9,2.9,0,0,0-.54.37c-.12.1-.24.22-.35.33l-.26.25-.33.29-.3.27a2.53,2.53,0,0,0-.45.55l-.08.11a3,3,0,0,1-.33.27L44,61.3l-.37.34-.21.2c-.19.14-.41.3-.62.43l-.09,0-.45.27h-.08a2.39,2.39,0,0,0-.71.07,5.13,5.13,0,0,1-.7.1,2.91,2.91,0,0,0-.68.17l-.11,0-.4,0-.46,0-.19,0a3.34,3.34,0,0,0-.66-.11,2.75,2.75,0,0,0-.7.08c-.06,0-.12,0-.09,0l-.13,0a2.26,2.26,0,0,0-.77-.17,2.06,2.06,0,0,0-.88.19l-.06,0-.2,0a3.43,3.43,0,0,0-.55-.06l-.34,0a4.21,4.21,0,0,0-.5,0l-.84,0a1.86,1.86,0,0,1-.26,0,4.52,4.52,0,0,0-.58-.08,3.09,3.09,0,0,0-.68.07.64.64,0,0,0-.14,0l-.15-.05a2.3,2.3,0,0,0-.72-.15,3.14,3.14,0,0,0-.64.05l-.18,0-.16,0a2.47,2.47,0,0,0-.71-.14,2.42,2.42,0,0,0-.8.13s-.09,0-.06,0l-.28,0-.55-.06a2,2,0,0,1-.27,0,4.44,4.44,0,0,0-.57-.07,4.58,4.58,0,0,0-.61,0h-.23a3.84,3.84,0,0,0-.58,0,1.22,1.22,0,0,1-.27,0l-.18,0a3.34,3.34,0,0,0-.66-.11l-.84,0a3.91,3.91,0,0,0-.61,0,.75.75,0,0,1-.23,0l-.16,0a2.82,2.82,0,0,0-.7-.13,2.46,2.46,0,0,0-.82.16l-.08,0-.26,0c-.1,0-1.69,0-11.43.32L3,62.77a.48.48,0,0,1-.15,0l-.18-.06c0-.13.06-.26.1-.39a12.79,12.79,0,0,1,.46-1.37l.41-1,.13-.26c.13-.27.26-.55.4-.81L4.68,58c.06-.11.13-.22.21-.34l.2-.33L5.31,57l.47-.69q.32-.47.66-.9l.12-.17c.42-.53.85-1.08,1.32-1.58L8,53.51l.24-.24.5-.47c.2-.18.42-.35.63-.52l.7-.48.39-.25.12-.07c.42-.26.77-.46,1.1-.64l1.3-.67.49-.24.22-.1.39-.18.73-.29A11.07,11.07,0,0,1,16.18,49a11.88,11.88,0,0,1,1.23-.19l1,0h.35l.55,0,.3,0c.22,0,.45,0,.68.07l.26,0c.21,0,.41.06.61.09l.28.05c.49.07,1,.17,1.51.27.74.14,1.59.3,2.41.39l.29,0,.56.07a5.31,5.31,0,0,1,1.3.5l.1.22.18.48.21.54c.26.68.53,1.38.83,2s.64,1.38,1,2a4.92,4.92,0,0,0,.28.45l.09.15a5.09,5.09,0,0,0,.31.45,7.38,7.38,0,0,0,.76.89l.59.56a.55.55,0,0,0,.25.13l.13,0a.57.57,0,0,0,.42-.19.55.55,0,0,0,.1-.58l-.13-.31-.31-.75c-.09-.23-.18-.46-.26-.69l-.07-.19c-.07-.24-.14-.48-.22-.72h0c-.21-.7-.44-1.43-.69-2.16-.15-.43-.31-.85-.47-1.25a.54.54,0,0,0,.07-.13.53.53,0,0,0-.07-.58q-.27-.35-.57-.69l-.07-.17c-.12-.29-.24-.59-.35-.88l-.11-.27c-.08-.22-.17-.43-.24-.65l-.61-1.93c-.07-.23-.12-.46-.18-.71L28,43.32c-.07-.4-.12-.82-.17-1.23a2.3,2.3,0,0,0,.57.08h.36V41.8l.14.38h.71l.45,0a2.26,2.26,0,0,0,.75-.12s.1,0,.08,0l.33,0c.17,0,.33,0,.5,0h.83l.83,0a3,3,0,0,0,.62-.06l.21,0a1,1,0,0,1,.2,0,2.63,2.63,0,0,0,.62.09l.19,0a2.56,2.56,0,0,0,.64.11c.19,0,.37,0,.58,0l.26,0h.39l.44,0,.33,0,.5,0,.31,0,.52,0A2.35,2.35,0,0,0,40,42.3s.08,0,.07,0l.12,0a2.91,2.91,0,0,0,.71.13,2.51,2.51,0,0,0,.75-.11l.08,0,.5,0h.31l.16,0a2.73,2.73,0,0,0,.69.13l.26,0a4.44,4.44,0,0,0,.57.07,2.23,2.23,0,0,0,.77-.13s.1,0,.07,0l.24,0a4.78,4.78,0,0,0,.59.07,3.84,3.84,0,0,0,.62-.06l.2,0,.15,0a2.87,2.87,0,0,0,.69.12,1.51,1.51,0,0,0,.39,0v0a3.76,3.76,0,0,0,.34.88,2.11,2.11,0,0,0,.47.51l.17.16a1,1,0,0,1,.16.23,1.41,1.41,0,0,0,.47.51,2.29,2.29,0,0,0,.72.25l.2,0a1.76,1.76,0,0,0,.68,0,2.9,2.9,0,0,1,.51,0,2.12,2.12,0,0,0,.7,0,3.45,3.45,0,0,0,.85-.4l.16-.09A2.71,2.71,0,0,0,54,44.2l.08-.08a3.25,3.25,0,0,0,.55-.65,2.13,2.13,0,0,0,.22-.69c0-.08,0-.16,0-.23l.06-.19a2.44,2.44,0,0,0,.14-.75,1.74,1.74,0,0,0-.17-.67,2.44,2.44,0,0,1-.1-.24,2.36,2.36,0,0,1,0-.28,1.52,1.52,0,0,0-.18-.65A3.46,3.46,0,0,0,54,39a2,2,0,0,0-.59-.36l-.24-.11a1.84,1.84,0,0,1-.22-.17,1.54,1.54,0,0,0-.6-.35,3.58,3.58,0,0,0-1-.15,1.59,1.59,0,0,0-.68.18l-.25.1a3.34,3.34,0,0,0-.89.33l-.24.12a1.92,1.92,0,0,0-.6.37,3.81,3.81,0,0,0-.59.78,1,1,0,0,0-.13.47,2.45,2.45,0,0,0-.41.11l-.08,0-.1,0a2.87,2.87,0,0,0-.69-.12,3.72,3.72,0,0,0-.62.06l-.21,0a1.57,1.57,0,0,1-.25,0,3.34,3.34,0,0,0-.58-.06,2.38,2.38,0,0,0-.79.13s-.08,0,0,0l-.25,0a3.3,3.3,0,0,0-.56-.07l-.16,0a2.38,2.38,0,0,0-.68-.12,4.25,4.25,0,0,0-.5,0h-.34a2.83,2.83,0,0,0-.74.11l-.06,0-.16,0a2.92,2.92,0,0,0-.7-.13,3.11,3.11,0,0,0-.77.13s-.1,0-.07,0l-.3,0-.53-.05-.33,0-.5,0h-.38l-.45,0a5.47,5.47,0,0,0-.59,0l-.23,0-.18,0a3.22,3.22,0,0,0-.66-.11l-.19,0a3.08,3.08,0,0,0-.63-.1,4.21,4.21,0,0,0-.63.06.82.82,0,0,1-.21,0l-.83,0h-.83l-.33,0-.5,0a2.28,2.28,0,0,0-.76.12l-.08,0h-.38l-.45,0h-.82a.93.93,0,0,1-.19,0,2.63,2.63,0,0,0-.66-.1l0-.52c0-.39-.05-.77-.06-1.16l0-1.19c0-.2,0-.39,0-.58l0-1.09a1.49,1.49,0,0,1,0-.21l.07-.81c0-.46.11-.91.18-1.37l.33-1.55a2.77,2.77,0,0,1,.12-.41l.13-.49.12-.4L29,28.67a4.45,4.45,0,0,1,.16-.42l.17-.42.21-.52c.27-.59.54-1.13.84-1.65A15.49,15.49,0,0,1,31.49,24c.29-.36.57-.68.85-1l.37-.39.07,0a2,2,0,0,0,.39.74,2.37,2.37,0,0,0,.57.49s.1.06.1,0a1.51,1.51,0,0,1,.14.21,4,4,0,0,0,.34.49c.11.13.23.25.37.39s.15.15.22.22.06.11.1.18a3.87,3.87,0,0,0,.36.54,4.36,4.36,0,0,0,.51.44l.15.11a4.55,4.55,0,0,0,.38.39l.21.21c.11.13.24.25.38.39l.21.21a1.81,1.81,0,0,1,.19.25c.11.14.22.29.34.42l.2.23.28-.25h0l-.21.33.26.29s0,.09.07.13a2.13,2.13,0,0,0,.4.64l.27.31c.1.11.19.22.29.32a2.37,2.37,0,0,0,.65.47s.1.05.07,0l.15.17a2.86,2.86,0,0,0,1.16.9,3.84,3.84,0,0,0,1.62.16l.42,0a2.6,2.6,0,0,1,.4,0l.53,0,.26,0,.1,0a2.32,2.32,0,0,0,.78.2,2.61,2.61,0,0,0,.82-.13l.1,0,.38,0,.39,0,.18.06a2.86,2.86,0,0,0,.67.19l.33.06a4.51,4.51,0,0,0,.53.1,2.38,2.38,0,0,0,.92-.12l.07,0,.24,0a5.12,5.12,0,0,0,.54.1l.3,0a4.76,4.76,0,0,0,.56.07,4.07,4.07,0,0,0,.5,0h.27l.09,0a2.16,2.16,0,0,0,.82.24,2.46,2.46,0,0,0,.72-.07c.06,0,.13,0,.11,0l.13,0a2.45,2.45,0,0,0,.74.17,2.35,2.35,0,0,0,.72-.1l.12,0a3.13,3.13,0,0,0,.61,0l.19,0,.13,0a2.64,2.64,0,0,0,.76.16l.55,0H59l.34,0a4.9,4.9,0,0,0,.54,0,5,5,0,0,0,.62,0,.72.72,0,0,1,.21,0,2.44,2.44,0,0,0,.69-.1l.16,0L62,33l.42,0,.15,0a3.36,3.36,0,0,0,1.3.07,1.42,1.42,0,0,1,.5,0,4.66,4.66,0,0,0,.6,0,2.58,2.58,0,0,0,.72-.13l.11,0h.85a1.07,1.07,0,0,1,.29,0c.18,0,.36,0,.55,0a1.53,1.53,0,0,1,.27,0,5.09,5.09,0,0,0,.56,0,2.64,2.64,0,0,0,.75-.16s.1,0,.08,0l.33,0H70l.22,0a2.8,2.8,0,0,0,.61.06c.06,0,.11,0,.2,0a3.85,3.85,0,0,0,.63.06,4.78,4.78,0,0,0,.61-.08,1.24,1.24,0,0,1,.23,0,4.26,4.26,0,0,0,.58,0l.25,0a4.51,4.51,0,0,0,.6-.06l.24,0,.29,0a3.38,3.38,0,0,0,.55,0l.29,0a4.43,4.43,0,0,0,.55,0H77.5a2,2,0,0,0,.79-.18h0l.06,0a2.46,2.46,0,0,0,.78.13,2.64,2.64,0,0,0,.6-.08l.23,0a3.69,3.69,0,0,0,.62-.09l.22,0,.73,0,.07,0a2,2,0,0,0,.87.21,2.38,2.38,0,0,0,.77-.17s.1,0,.06,0l.82,0,.17,0a2.53,2.53,0,0,0,.69.1,3.3,3.3,0,0,0,.65-.1l.18,0a5.48,5.48,0,0,0,.55,0l.29,0,.48,0,.35,0a4.36,4.36,0,0,0,.51,0l.34,0,.17,0a2.51,2.51,0,0,0,.62.08l.24,0a3.6,3.6,0,0,0,.62.08,4.89,4.89,0,0,0,.63-.08l.2,0,.22,0,.13.23a3.42,3.42,0,0,0,.53.75,3.61,3.61,0,0,0,.72.59l.1.06a3.26,3.26,0,0,0,.75.35,3.93,3.93,0,0,0,.94.09,3.37,3.37,0,0,0,1.82-.46l.15-.08a2.66,2.66,0,0,0,.64-.45,2.08,2.08,0,0,0,.39-.59c0-.08.07-.15.11-.22a3.41,3.41,0,0,0,.4-.86l0-.17A3,3,0,0,0,98,31a1.47,1.47,0,0,0-.2-.67,2.35,2.35,0,0,1-.11-.24l0-.19a2.51,2.51,0,0,0-.25-.69,3.32,3.32,0,0,0-.58-.72,1.53,1.53,0,0,1-.17-.23,1.51,1.51,0,0,0-.47-.51,1.7,1.7,0,0,0-.67-.17l-.28,0a2.17,2.17,0,0,0-.71-.05h-.22a1.57,1.57,0,0,1-.28,0,1.4,1.4,0,0,0-.68,0,2.13,2.13,0,0,0-.64.32,1.37,1.37,0,0,1-.2.13L92.3,28a2.53,2.53,0,0,0-.64.44l-.16.15a2.47,2.47,0,0,0-.5.56,4,4,0,0,0-.33.92,1.12,1.12,0,0,0,0,.31c-.14,0-.27,0-.4.06l-.19,0-.22,0a3.72,3.72,0,0,0-.63-.08l-.2,0a3.24,3.24,0,0,0-.67-.08l-.52,0-.32,0-.52,0-.32,0c-.16,0-.33,0-.53,0l-.3,0a3.3,3.3,0,0,0-.65.1l-.15,0-.17,0a2.73,2.73,0,0,0-.71-.09l-.84,0a2.33,2.33,0,0,0-.75.16h0a2.43,2.43,0,0,0-.88-.2l-.84,0a2.9,2.9,0,0,0-.61.08,1,1,0,0,1-.22,0,2.9,2.9,0,0,0-.61.08c-.08,0-.17,0-.15,0l-.13,0a2.61,2.61,0,0,0-.79-.14,2.35,2.35,0,0,0-.79.19l-.44,0h-.43c-.13,0-.25,0-.45,0h-.4l-.27,0a3.32,3.32,0,0,0-.57,0,1.58,1.58,0,0,1-.28,0,5,5,0,0,0-.55,0,3.28,3.28,0,0,0-.59.06l-.24,0-.56.05-.28,0a3.88,3.88,0,0,0-.62.08,1.1,1.1,0,0,1-.44,0,3.1,3.1,0,0,0-.56-.06l-.28,0a2.84,2.84,0,0,0-.61-.05l-.33,0a4.17,4.17,0,0,0-.5,0,2.43,2.43,0,0,0-.76.15s-.09,0-.08,0l-.28,0a5,5,0,0,0-.56,0l-.29,0a4.75,4.75,0,0,0-.54,0h-.83a2.66,2.66,0,0,0-.73.13l-.12,0-.23,0-.59-.05a4.4,4.4,0,0,0-.58.05l-.33,0,0,.35h0l-.06-.4a5.56,5.56,0,0,0-1-.13,1.92,1.92,0,0,0,.7-.52,2,2,0,0,0,.36-.73s0-.09,0-.07.19-.25.28-.38l.2-.28.21-.23c.12-.12.24-.26.36-.4a.89.89,0,0,1,.17-.17,4.31,4.31,0,0,0,.41-.43,2.73,2.73,0,0,0,.34-.65l0-.11a1.35,1.35,0,0,1,.17-.17,3,3,0,0,0,.39-.41l.12-.1a2.65,2.65,0,0,0,.54-.5,2.56,2.56,0,0,0,.35-.71l0-.07.06,0a2.6,2.6,0,0,0,.57-.52c.1-.14.19-.27.29-.44l.18-.26a2.92,2.92,0,0,0,.34-.65.43.43,0,0,1,0-.11,4.83,4.83,0,0,0,.33-.52l.06-.11.06,0a2.09,2.09,0,0,0,.69-.57,3.34,3.34,0,0,0,.33-.55,1.62,1.62,0,0,1,.1-.18c.09-.12.18-.26.28-.41s.12-.19.19-.28l.15-.15a2.86,2.86,0,0,0,.43-.47,2.32,2.32,0,0,0,.33-.74s0-.08,0-.06l.47-.64a.63.63,0,0,1,.12-.1,3,3,0,0,0,.51-.51c.1-.14.19-.29.29-.46l.16-.25c0-.07.11-.12.19-.21a4.28,4.28,0,0,0,.36-.43,3,3,0,0,0,.29-.56,1.91,1.91,0,0,0,.67,0,3,3,0,0,1,.52,0,2,2,0,0,0,.69,0,1.75,1.75,0,0,0,.59-.33l.22-.15.2-.1a2.27,2.27,0,0,0,.58-.39,3.29,3.29,0,0,0,.6-.73,2,2,0,0,0,.21-.65L78,13a.83.83,0,0,1,.11-.24,1.37,1.37,0,0,0,.23-.67,1.47,1.47,0,0,0-.21-.67,1,1,0,0,1-.11-.25,1.26,1.26,0,0,1,0-.28,1.54,1.54,0,0,0-.17-.66,1.58,1.58,0,0,0-.5-.47A.92.92,0,0,1,77,9.56a1.63,1.63,0,0,1-.17-.2,1.54,1.54,0,0,0-.55-.52,3.19,3.19,0,0,0-.81-.38,2.14,2.14,0,0,0-.71,0,3.87,3.87,0,0,0-1,.15l-.2.06a3,3,0,0,0-.84.38,3.36,3.36,0,0,0-.74.53,3.42,3.42,0,0,0-.56.79,3.1,3.1,0,0,0-.37.8,1.63,1.63,0,0,1-.1.25,1.51,1.51,0,0,0-.19.67A3.48,3.48,0,0,0,71,13a2.19,2.19,0,0,0,.32.65,2.14,2.14,0,0,1,.13.19,1.58,1.58,0,0,0,.35.41,2.14,2.14,0,0,0-.2.46,1.14,1.14,0,0,0-.06.14,1.38,1.38,0,0,1-.18.2c-.11.13-.24.27-.36.43s-.18.27-.28.44-.11.18-.15.24l-.11.09a2.54,2.54,0,0,0-.52.52l-.49.67a2.41,2.41,0,0,0-.33.74v.05L69,18.4a2.76,2.76,0,0,0-.43.46l-.28.42a3.16,3.16,0,0,1-.18.27,3.86,3.86,0,0,0-.34.58.25.25,0,0,0,0,.07l0,0a2.11,2.11,0,0,0-.7.57,5.4,5.4,0,0,0-.3.47c0,.08-.09.16-.15.24a2.61,2.61,0,0,0-.33.64.82.82,0,0,0,0,.11c-.1.13-.19.27-.29.43l-.14.22-.12.09a2.31,2.31,0,0,0-.56.51,2.22,2.22,0,0,0-.34.7l0,.08-.09.07a2.3,2.3,0,0,0-.52.49c0,.05-.1.1-.17.17a3.41,3.41,0,0,0-.41.43,2.56,2.56,0,0,0-.34.65.51.51,0,0,0,0,.11c0,.05-.1.1-.18.18a2.71,2.71,0,0,0-.4.42l-.21.23a4,4,0,0,0-.34.38l-.3.42c-.06.08-.12.17-.19.25a2.29,2.29,0,0,0-.36.72,2,2,0,0,0-.73.52A3.05,3.05,0,0,0,60,30l0,.11a3.22,3.22,0,0,0-.34.51,1.18,1.18,0,0,1-.11.18l-.1.11h-.32c-.15,0-.3,0-.47,0a2.2,2.2,0,0,1-.36,0l-.57,0-.21,0-.14-.05a2.48,2.48,0,0,0-.74-.16,4.7,4.7,0,0,0-.63.05,1.34,1.34,0,0,1-.2,0,2.73,2.73,0,0,0-.71.09l.08.37L55,30.9h0v0h0l-.1,0a2.34,2.34,0,0,0-.71-.16,2.78,2.78,0,0,0-.78.09h0l-.07,0a2,2,0,0,0-.77-.23l-.43,0-.38,0-.44-.05-.36-.05a2.46,2.46,0,0,1-.33-.07L50,30.22a2,2,0,0,0-.92.12l-.08,0-.23-.05a5.12,5.12,0,0,0-.54-.1l-.18-.06a3.06,3.06,0,0,0-.7-.18l-.35,0c-.18,0-.36-.05-.55-.06a2.21,2.21,0,0,0-.88.13h0l-.07,0a2.34,2.34,0,0,0-.83-.2,3.82,3.82,0,0,0-.68,0,1.9,1.9,0,0,1-.25,0c-.2,0-.4,0-.61,0a1.63,1.63,0,0,1-.31,0,2.18,2.18,0,0,1-.69,0,2,2,0,0,1-.27-.29l-.21-.23a2.28,2.28,0,0,0-.64-.46s-.1-.05-.07,0l-.27-.3-.26-.29-.06-.13a2.59,2.59,0,0,0-.4-.63l-.28-.31c-.09-.11-.18-.22-.28-.32l-.19-.25a4.12,4.12,0,0,0-.32-.41,4.53,4.53,0,0,0-.38-.38c-.07-.07-.15-.14-.21-.21s-.23-.24-.37-.38-.15-.14-.22-.22a3.08,3.08,0,0,0-.5-.44l-.14-.1a1,1,0,0,1-.1-.18,4.55,4.55,0,0,0-.36-.53c-.11-.13-.23-.25-.37-.39L36,23.23,35.86,23a3.29,3.29,0,0,0-.34-.48,2.54,2.54,0,0,0-.57-.48l-.06,0s0,0,0-.05a2.08,2.08,0,0,0-.38-.74l-.1-.1.1-.08c.35-.26.72-.51,1.1-.74.21-.13.42-.25.69-.39l.39-.19,1.25-.52c.3-.11.61-.23.92-.31l1-.28.43-.1.43-.1.41-.09,1-.16c.35-.06.71-.1,1.07-.14l.28,0c.52,0,1-.08,1.56-.1s1,0,1.47,0h.49l1.5,0a18,18,0,0,1,2.14.21,6.88,6.88,0,0,1,1.39.48,7.23,7.23,0,0,1,1.15.85,8.81,8.81,0,0,1,.65.7,3.55,3.55,0,0,1,.23.31l.1.12c.14.2.28.41.4.6l.08.13c.18.33.38.67.53,1l.14.31c.06.13.11.25.17.37l0,.11c.14.34.28.66.39,1A18.34,18.34,0,0,1,56.31,26c.06.27.11.53.15.8s.06.32.1.48a4.17,4.17,0,0,0,.29.91A.57.57,0,0,0,57.93,28a3.7,3.7,0,0,1,0-.59l.11-.84a10.77,10.77,0,0,0,.1-1.2,10.17,10.17,0,0,0,0-1.47,6.12,6.12,0,0,0-.26-1.34l-.06-.18a5.84,5.84,0,0,0-.2-.59c-.08-.21-.16-.42-.25-.62s-.13-.28-.2-.41l-.09-.17c-.2-.4-.44-.77-.64-1.09l-.11-.16a6.61,6.61,0,0,1,.35-1.07c.13-.27.27-.54.43-.84l.15-.29.26-.45.17-.3c.07-.13.15-.25.24-.4l.43-.72.23-.4c.24-.41.5-.8.76-1.21l.18-.28c.28-.42.58-.84.89-1.25l.62-.78a5.08,5.08,0,0,1,.38-.43l.19-.22.42-.43.14-.14c.17-.18.34-.35.52-.52l.23-.21c.14-.14.29-.27.44-.4l.78-.66c.3-.26.62-.51.94-.76l.52-.38c.3-.23.62-.46.93-.66l1-.61.46-.27.39-.22.41-.24,1-.52c.33-.17.67-.32,1-.46l.68-.28c.34-.14.7-.28,1-.39l1.09-.33a3.89,3.89,0,0,1,.49-.12L74.54,3,75,2.84l1.11-.19c.37-.06.75-.1,1.12-.14l.63,0c.55,0,1.12-.06,1.68-.07H81.8c1.49,0,3,.08,4.2.16l.48,0,.75.1c.18,0,.36.06.53.09s.58.14.87.22a7,7,0,0,1,.77.25l.88.35c.32.12.64.28,1,.42l.43.22c.33.17.67.35,1,.54l.21.13.55.34a12.6,12.6,0,0,1,1.53,1.18,12.46,12.46,0,0,1,1,1.14c.34.44.65.9.87,1.25.32.53.64,1.06,1,1.6l.42.76.16.29a5.68,5.68,0,0,1,.28.55l.47,1a1.21,1.21,0,0,1,.08.19l.07.16c.08.2.17.39.26.58l.07.19,0,.1.24.59c.07.16.12.32.18.49l.1.28c.07.21.14.43.2.63l.09.31c.06.19.11.38.16.57-.72.32-1.39.64-2,1s-1.22.65-1.71.95a5.84,5.84,0,0,0-.53.33c-.13.08-.25.18-.38.27l-.17.14-.36.28-.45.41c-.11.1-.21.21-.31.32l-.1.11-.32.4-.07.08a10,10,0,0,0-.61.93,15.76,15.76,0,0,0-.87,1.87l-.06.14a.56.56,0,0,0,.91.61l.75-.75.46-.47c.19-.18.37-.36.57-.53s.31-.27.47-.4l.24-.19.52-.36.16-.11a1.22,1.22,0,0,1,.19-.12l.59-.37.21-.13.3-.18.22-.14.27-.15.57-.32c.63-.34,1.26-.66,1.88-1s1.12-.51,1.75-.78,1.06-.41,1.59-.61,1.06-.33,1.58-.47l.25-.08.59-.14.28-.06.65-.13.26,0c.21,0,.42-.08.64-.1l.94-.11.26,0c.44,0,.88-.06,1.32-.07h.32a4.33,4.33,0,0,1,.52,0H113l.56,0h.22c.27,0,.53,0,.79.06l.27,0,.56.07.94.16.84.18c.19,0,.38.1.56.15l.23.07a13.48,13.48,0,0,1,1.52.5l.26.09.51.21.28.12.52.23.86.42.54.28.84.49.45.29.22.15.43.31.22.17.14.11.4.34c.21.21.43.42.64.65s.49.56.73.85a2.43,2.43,0,0,1,.24.32l.13.17c.08.1.15.21.24.34l.06.08.5.77c.16.26.3.51.43.75H128c-.19,0-.38,0-.59,0h-.29l-.35,0-.52-.05-.24,0a3.79,3.79,0,0,0-.64-.09,2.88,2.88,0,0,0-.72.09l-.16,0-.18,0a2.08,2.08,0,0,0-1.32.1,3.65,3.65,0,0,0-1,.69,1.9,1.9,0,0,0-.45.74l0,0-.09.06a2.65,2.65,0,0,0-.54.4l-.6.58a1.94,1.94,0,0,1-.25.23l-.36.33c-.1.09-.19.19-.32.32l-.26.28-.6.58a3.28,3.28,0,0,0-.4.49l-.12.15-.15.09a2.75,2.75,0,0,0-.54.4,2.54,2.54,0,0,0-.44.61s0,.09,0,.09l-.23.21a4.47,4.47,0,0,0-.4.34l-.11.12-.14,0-.17,0A2.78,2.78,0,0,0,115,32a3.62,3.62,0,0,0-.94.11,3.48,3.48,0,0,0-.87.37,3.7,3.7,0,0,0-.75.57,2.09,2.09,0,0,0-.37.58,2.53,2.53,0,0,1-.12.23,1.46,1.46,0,0,1-.16.21,1.56,1.56,0,0,0-.36.59,3.9,3.9,0,0,0-.13,1,2.43,2.43,0,0,0,.15.74l.06.24a3.52,3.52,0,0,0,.32.85l.11.22a2.07,2.07,0,0,0,.4.61,2.57,2.57,0,0,0,.64.43l.17.1a1.75,1.75,0,0,0,.66.19,1.28,1.28,0,0,1,.27,0,3.45,3.45,0,0,0,1.72,0l.1,0,.27,0a1.87,1.87,0,0,0,.65-.18,3.67,3.67,0,0,0,.76-.57l.13-.12a2.77,2.77,0,0,0,.52-.6,4.33,4.33,0,0,0,.4-.89,4.12,4.12,0,0,0,.14-1,1.29,1.29,0,0,0-.25-.68,1.29,1.29,0,0,1-.12-.23.86.86,0,0,1,0-.28,1.68,1.68,0,0,0-.18-.65,1.16,1.16,0,0,0-.24-.29l0,0a4.32,4.32,0,0,0,.39-.34,2.39,2.39,0,0,0,.44-.62s0-.09,0-.08a.66.66,0,0,1,.15-.09,2.74,2.74,0,0,0,.54-.41,3.72,3.72,0,0,0,.41-.48,1,1,0,0,1,.12-.16l.6-.58.35-.36.23-.24.25-.22.37-.33.58-.58.15-.1a2.65,2.65,0,0,0,.54-.4,1.71,1.71,0,0,0,.44-.77,1.37,1.37,0,0,1,.24-.18l.13,0a4.45,4.45,0,0,0,.5.05,3.15,3.15,0,0,0,.7-.09l.16,0,.24,0a3.54,3.54,0,0,0,.62.09l.36,0,.49.05a4.09,4.09,0,0,0,.59,0,2.43,2.43,0,0,1,.27,0c.17,0,.34,0,.54,0s.22,0,.32,0l.47,0h.11c.07.16.15.31.21.46.34.74.61,1.37.85,2s.4,1.06.61,1.68l.2.71c0,.15.08.3.11.46l0,.17a14.22,14.22,0,0,1,.23,1.52,9.35,9.35,0,0,1-.11,2c-.07.39-.16.77-.28,1.21,0,.21-.12.41-.19.64l-.08.23c-.06.18-.12.34-.21.56l-.09.23a4.08,4.08,0,0,1-.17.42l-.12.29c-.1.21-.2.43-.28.63l-.21.42-.26.51-.77,1.46a13.2,13.2,0,0,0-.84,1.78.56.56,0,0,0,.94.57c.25-.27.53-.53.8-.79s.54-.52.8-.8.57-.62.82-.92c.12-.14.23-.29.34-.44l.1-.14a3.13,3.13,0,0,0,.29-.42h0c.27,0,.53,0,.8,0a15,15,0,0,1,1.5.2,17.25,17.25,0,0,1,3,1l.33.16.77.37,1.21.7.27.17c.15.09.3.18.44.28l.9.62c.14.09.28.2.42.31l.18.14c.2.15.4.3.59.46l.23.19.44.37,1.29,1.23.18.18.22.24.21.22.2.23c.14.16.29.32.42.49.35.45.67.85.94,1.27a9.38,9.38,0,0,1,.88,1.87,11.3,11.3,0,0,1,.34,1.39c0,.17,0,.34.07.52l0,.19c0,.31.07.63.1.94V56c.07,1.17.15,2.38.19,3.57,0,.31,0,.63,0,1C148.26,60.83,148.27,61.06,148.26,61.29ZM50,58.23l.16,0,0,.07Z"/><polygon class="cls-1" points="93.3 68.47 90.77 68.47 90.77 70.39 90.77 82.96 94.55 82.96 94.55 81.04 93.3 81.04 93.3 68.47"/><path class="cls-1" d="M61.8,75h1.91V73.09H61.8V71.63c0-.9.23-1,1.15-1a4.3,4.3,0,0,1,.85.08l.34-2.06a11.36,11.36,0,0,0-1.81-.19c-2.61,0-3.06.89-3.06,2.94v1.68L58,73.3V75h1.28V81H58V83h5.08V81H61.8Z"/><path class="cls-1" d="M88.5,80.51c-1,0-1-.32-1-1.3V75h2V73.09h-2V68.47H85V79.74C85,82,85.56,83,87.94,83a10.69,10.69,0,0,0,1.92-.27l-.37-2.26A5.63,5.63,0,0,1,88.5,80.51Z"/><path class="cls-1" d="M105.6,81.86c0-.21-.15-.33-.38-.33h-.39v.94H105v-.29h.14l.19.29h.26l-.23-.32A.29.29,0,0,0,105.6,81.86Zm-.38.14H105v-.28h.18c.09,0,.16,0,.16.14S105.31,82,105.22,82Z"/><path class="cls-1" d="M105.19,81.05a1,1,0,1,0,1,1A1,1,0,0,0,105.19,81.05Zm0,1.75a.8.8,0,1,1,0-1.59.79.79,0,0,1,.8.79A.8.8,0,0,1,105.19,82.8Z"/><path class="cls-1" d="M80,76.47c-1.27-.28-1.43-.54-1.43-1s.14-1,1.32-1a10.73,10.73,0,0,1,1.93.14V75h1.92V73.09a15.37,15.37,0,0,0-4-.54c-2.37,0-3.8.83-3.8,3s1.76,3,4,3.39c1.17.24,1.53.48,1.53,1s-.2,1-1.46,1a11.2,11.2,0,0,1-2.13-.15v-.33H76v1.89a17.73,17.73,0,0,0,4.31.64c2.37,0,3.5-1.14,3.5-3.33S81.91,76.89,80,76.47Z"/><path class="cls-1" d="M70,76.44l-1,.85a.41.41,0,0,0-.16,0,.49.49,0,1,0,.48.49.77.77,0,0,0,0-.15l.87-1Z"/><path class="cls-1" d="M74.1,72.56H71.57v.74a5.11,5.11,0,0,0-1.72-.65h0v-.87h.31v-.65H67.63v.65h.31v.87h0a5.2,5.2,0,1,0,3.62,9.56L72,83h2.67V80.43H74.1Zm-5,7.86v-.29h-.31v.29a2.68,2.68,0,0,1-2.51-2.53h.3v-.3h-.3a2.68,2.68,0,0,1,2.51-2.51v.3h.31v-.3a2.67,2.67,0,0,1,2.51,2.44v.08h-.3v.31h.3V78A2.66,2.66,0,0,1,69.06,80.42Z"/><path class="cls-1" d="M101,75h1.24l-1.83,4.52L98.52,75h1.25V73.09H94.55V75H95.8l3.24,8a2.81,2.81,0,0,1-2.64,1.81,6.73,6.73,0,0,1-1-.1l-.23,2.29a8.48,8.48,0,0,0,1.83.19c2.3,0,3.8-2.08,4.72-4.29l3.2-7.87h1.24V73.09H101Z"/></g></g></svg>